<?xml version="1.0" encoding="utf-8"?>
<!-- Generator: Adobe Illustrator 24.0.0, SVG Export Plug-In . SVG Version: 6.00 Build 0)  -->
<!DOCTYPE svg PUBLIC "-//W3C//DTD SVG 1.1//EN" "http://www.w3.org/Graphics/SVG/1.1/DTD/svg11.dtd" [
	<!ENTITY ns_extend "http://ns.adobe.com/Extensibility/1.0/">
	<!ENTITY ns_ai "http://ns.adobe.com/AdobeIllustrator/10.0/">
	<!ENTITY ns_graphs "http://ns.adobe.com/Graphs/1.0/">
	<!ENTITY ns_vars "http://ns.adobe.com/Variables/1.0/">
	<!ENTITY ns_imrep "http://ns.adobe.com/ImageReplacement/1.0/">
	<!ENTITY ns_sfw "http://ns.adobe.com/SaveForWeb/1.0/">
	<!ENTITY ns_custom "http://ns.adobe.com/GenericCustomNamespace/1.0/">
	<!ENTITY ns_adobe_xpath "http://ns.adobe.com/XPath/1.0/">
]>
<svg version="1.1" id="Layer_1" xmlns:x="&ns_extend;" xmlns:i="&ns_ai;" xmlns:graph="&ns_graphs;"
	 xmlns="http://www.w3.org/2000/svg" xmlns:xlink="http://www.w3.org/1999/xlink" x="0px" y="0px" viewBox="0 0 36 36"
	 style="enable-background:new 0 0 36 36;" xml:space="preserve">
<metadata>
	<sfw  xmlns="&ns_sfw;">
		<slices></slices>
		<sliceSourceBounds  bottomLeftOrigin="true" height="32.57" width="31.97" x="1.99" y="-34.57"></sliceSourceBounds>
	</sfw>
</metadata>
<g class="groupSvg">
	<path d="M21.04,2c0.37,0.16,0.52,0.43,0.52,0.84c-0.02,1.01-0.01,2.01-0.01,3.06c0.15,0,0.29,0,0.42,0c3.48,0,6.96,0,10.44,0
		c0.75,0,1.23,0.28,1.44,0.87c0.07,0.2,0.11,0.41,0.11,0.62c0.01,7.28,0.01,14.55,0,21.83c0,0.93-0.56,1.47-1.53,1.47
		c-3.48,0-6.96,0-10.44,0c-0.14,0-0.27,0-0.44,0c0,0.71,0,1.38,0,2.06c0,0.37,0,0.74,0,1.11c0,0.5-0.34,0.79-0.83,0.7
		c-1.58-0.29-3.15-0.59-4.73-0.89c-2.3-0.44-4.6-0.87-6.91-1.31c-2.14-0.41-4.27-0.81-6.41-1.22c-0.5-0.1-0.69-0.33-0.69-0.83
		c0-4.97,0-9.95,0-14.92c0-3,0-6,0-9c0-0.63,0.17-0.82,0.79-0.94c2.52-0.48,5.04-0.96,7.56-1.44c2.06-0.39,4.13-0.78,6.19-1.17
		c1.37-0.26,2.74-0.52,4.11-0.78c0.03-0.01,0.05-0.03,0.08-0.05C20.83,2,20.93,2,21.04,2z M3.31,6.67c0,7.76,0,15.49,0,23.25
		c5.65,1.07,11.29,2.15,16.94,3.22c0-9.93,0-19.79,0-29.7C14.6,4.52,8.97,5.59,3.31,6.67z M21.56,29.34c3.7,0,7.38,0,11.05,0
		c0-7.38,0-14.75,0-22.11c-3.69,0-7.36,0-11.04,0c0,1.08,0,2.14,0,3.24c0.87,0,1.73,0,2.57,0c0,0.45,0,0.87,0,1.31
		c-0.87,0-1.71,0-2.57,0c0,1.09,0,2.15,0,3.26c0.87,0,1.72,0,2.57,0c0,0.45,0,0.85,0,1.29c-0.87,0-1.71,0-2.57,0
		c0,1.09,0,2.16,0,3.25c0.86,0,1.71,0,2.57,0c0,0.45,0,0.88,0,1.33c-0.87,0-1.72,0-2.57,0c0,1.3,0,2.58,0,3.89c0.87,0,1.72,0,2.58,0
		c0,0.46,0,0.87,0,1.33c-0.87,0-1.73,0-2.59,0C21.56,27.21,21.56,28.26,21.56,29.34z"/>
	<path d="M6.03,24.4c0.5-0.78,0.96-1.51,1.42-2.23c0.74-1.17,1.48-2.34,2.24-3.49c0.18-0.27,0.18-0.46,0.01-0.73
		c-1.08-1.83-2.14-3.66-3.21-5.5c-0.04-0.06-0.07-0.13-0.12-0.23c0.48,0,0.92,0,1.37,0c0.33,0,0.67,0.05,0.99-0.01
		c0.77-0.14,1.14,0.19,1.42,0.89c0.42,1.07,0.96,2.09,1.44,3.13c0.09,0.2,0.15,0.42,0.22,0.62c0.3-0.63,0.58-1.27,0.89-1.88
		c0.44-0.85,0.9-1.7,1.37-2.54c0.05-0.09,0.16-0.19,0.24-0.2c0.96-0.01,1.92-0.01,2.92-0.01c-0.8,1.33-1.59,2.63-2.37,3.93
		c-0.37,0.61-0.72,1.22-1.11,1.81c-0.15,0.23-0.13,0.39,0.01,0.62c1.15,1.85,2.28,3.71,3.41,5.56c0.04,0.07,0.08,0.14,0.16,0.26
		c-0.22,0-0.39,0-0.56,0c-0.82,0-1.63,0-2.45,0c-0.16,0-0.26-0.03-0.35-0.19c-0.64-1.23-1.3-2.44-1.93-3.67
		c-0.14-0.27-0.21-0.57-0.32-0.87c-0.16,0.37-0.29,0.75-0.47,1.1c-0.6,1.15-1.22,2.29-1.84,3.43c-0.05,0.09-0.18,0.19-0.27,0.19
		C8.12,24.41,7.11,24.4,6.03,24.4z"/>
	<path d="M25.49,11.75c0-0.43,0-0.84,0-1.27c1.74,0,3.46,0,5.2,0c0,0.42,0,0.83,0,1.27C28.96,11.75,27.24,11.75,25.49,11.75z"/>
	<path d="M25.49,26.1c0-0.44,0-0.86,0-1.28c1.73,0,3.44,0,5.18,0c0,0.43,0,0.84,0,1.28C28.95,26.1,27.23,26.1,25.49,26.1z"/>
	<path d="M25.49,20.88c0-0.44,0-0.85,0-1.28c1.73,0,3.45,0,5.19,0c0,0.42,0,0.84,0,1.28C28.95,20.88,27.23,20.88,25.49,20.88z"/>
	<path d="M30.68,15.06c0,0.42,0,0.83,0,1.25c-1.73,0-3.45,0-5.18,0c0-0.42,0-0.83,0-1.25C27.22,15.06,28.94,15.06,30.68,15.06z"/>
</g>
</svg>
