<svg id="Layer_1" data-name="Layer 1" xmlns="http://www.w3.org/2000/svg" width="36" height="36" viewBox="0 0 36 36">
  <title>Untitled-1</title>
  <g>
    <path d="M21,2a.79.79,0,0,1,.51.84c0,1,0,2,0,3.06H32.41a1.34,1.34,0,0,1,1.44.87,1.84,1.84,0,0,1,.11.62V29.21a1.37,1.37,0,0,1-1.53,1.47H21.55v3.17a.66.66,0,0,1-.83.7L16,33.66l-6.9-1.31L2.68,31.13A.72.72,0,0,1,2,30.3V6.37c0-.63.17-.82.79-.94L10.34,4l6.19-1.16,4.11-.78.08,0ZM3.31,6.67V29.92l16.94,3.22V3.44ZM21.56,29.34H32.61V7.23h-11v3.25h2.57v1.31H21.57v3.26h2.57v1.28H21.57v3.25h2.57v1.33H21.57V24.8h2.57v1.33H21.56Z"/>
    <path d="M6,24.4c.49-.78,1-1.51,1.42-2.23.74-1.17,1.48-2.34,2.24-3.5a.59.59,0,0,0,0-.73c-1.08-1.82-2.14-3.66-3.21-5.49a2.3,2.3,0,0,1-.12-.23H7.75a5.34,5.34,0,0,0,1,0c.77-.14,1.14.19,1.42.89.42,1.06,1,2.08,1.44,3.13a6.45,6.45,0,0,1,.21.62c.3-.64.58-1.27.89-1.89.44-.85.91-1.69,1.37-2.54,0-.08.16-.19.24-.19,1,0,1.93,0,2.92,0-.8,1.33-1.58,2.63-2.37,3.93-.36.61-.72,1.22-1.11,1.81a.5.5,0,0,0,0,.62c1.15,1.85,2.28,3.71,3.42,5.56l.15.26h-3a.32.32,0,0,1-.35-.19c-.64-1.22-1.3-2.44-1.93-3.67a7.44,7.44,0,0,1-.32-.87c-.16.37-.29.75-.47,1.1-.6,1.15-1.22,2.29-1.84,3.43a.39.39,0,0,1-.27.19C8.12,24.41,7.11,24.4,6,24.4Z"/>
    <path d="M25.49,11.75V10.48h5.19v1.27Z"/>
    <path d="M25.49,26.1V24.82h5.18V26.1Z"/>
    <path d="M25.49,20.88V19.6h5.19v1.28Z"/>
    <path d="M30.68,15.06v1.25H25.49V15.06Z"/>
  </g>
</svg>
