<svg id="Layer_1" data-name="Layer 1" xmlns="http://www.w3.org/2000/svg" viewBox="0 0 36 36">
  <defs>
    <style>
      .cls-1 {
        fill: #fff;
      }
    </style>
  </defs>
  <title>loan</title>
  <g>
    <path d="M16.29,11.43l-1.55,3.22.21.12c.63-.88,1.22-1.8,1.92-2.62a1.88,1.88,0,0,1,1.25-.6c.23,0,.57.51.72.85a16.81,16.81,0,0,0,1.45,2.87l-.58-3.79a18.87,18.87,0,0,1,2,1.07A28.72,28.72,0,0,1,32.16,25.69,8.89,8.89,0,0,1,32.72,31c-.65,2.91-2.44,4.84-5.38,4.91-6.36.15-12.73.24-19.07,0-3.5-.16-5.76-3.83-5.18-7.39.78-4.81,3.49-8.55,6.69-12A20.57,20.57,0,0,1,16.29,11.43Z"/>
    <path d="M15.09,5.57c-.36-1.16-.66-2.35-1.1-3.48A1,1,0,0,1,14.67.62a13.27,13.27,0,0,1,9,.38L22.21,4.4l.21.14L23.76,3c1.83.87,2.08,2,.77,3.45-1,1-2,2-2.85,3.11a1.22,1.22,0,0,1-1.91.27l.79-1.88-.28-.36c-.73,3-3.15,2.19-5,2.6a1.3,1.3,0,0,1-.94-.47,43.38,43.38,0,0,1-3-3.47C11,5.77,10.72,4.8,11,4.45A7,7,0,0,1,13,2.89c.07,0,.5.36.65.62.42.71.79,1.44,1.17,2.17Z"/>
  </g>
  <g>
    <path class="cls-1" d="M23.13,27.14l0,.29A3.58,3.58,0,0,1,22.5,29a3.7,3.7,0,0,1-2.26,1.56,3.46,3.46,0,0,1-.85.09H15.93a.24.24,0,0,1-.27-.26V23.25a.24.24,0,0,1,.27-.26h1.14a.26.26,0,0,1,.28.29V29h2.08a1.94,1.94,0,0,0,1.49-.68,2,2,0,0,0,.51-1.12,2.81,2.81,0,0,0,0-.29V20.37a.25.25,0,0,1,.11-.23.2.2,0,0,1,.08,0H23a.25.25,0,0,1,.18.19Z"/>
    <path class="cls-1" d="M16.71,20.1l.28,0a3.61,3.61,0,0,1,2,.86,3.68,3.68,0,0,1,1.23,2.13,3.64,3.64,0,0,1,.07.74v3.66c0,.2-.09.28-.28.28H18.83a.25.25,0,0,1-.28-.27c0-1.22,0-2.45,0-3.67a2.08,2.08,0,0,0-1.71-2.05,2,2,0,0,0-.35,0h-2v8.63a.49.49,0,0,1,0,.12.22.22,0,0,1-.22.16H13a.22.22,0,0,1-.23-.22.2.2,0,0,1,0-.07c0-3.34,0-6.67,0-10a.28.28,0,0,1,.19-.3Z"/>
  </g>
</svg>
