<svg height="512pt" viewBox="0 0 512 512" width="512pt" xmlns="http://www.w3.org/2000/svg"><path d="m451.839844 337.273438v-156.308594h54.566406l-204.515625-180.964844-204.511719 180.964844h54.566406v119.285156c-14.179687 4.203125-27.648437 11.425781-39.351562 21.726562l-45.367188 39.921876h-67.226562v149.949218h336.894531l175.105469-131.742187-8.453125-11.894531c-12.019531-16.917969-30.457031-28.152344-51.707031-30.9375zm-275.316406-186.296876 125.367187-110.933593 125.367187 110.933593h-5.410156v188.378907c-7.46875 2.074219-14.636718 5.292969-21.253906 9.652343l-46.132812 30.386719c4.746093-9.835937 7.410156-20.859375 7.410156-32.488281v-14.996094h-93.648438c-8.277344 0-11.652344-5.980468-16.945312-9.933594-19.765625-17.394531-44.554688-26.09375-69.34375-26.09375v-144.90625zm150.347656 330.878907h-296.882813v-89.964844h48.550781l53.867188-47.402344c28.234375-24.847656 70.820312-24.847656 99.058594 0 3.964844 2.675781 14.933594 17.3125 36.757812 17.3125h61.089844c-6.191406 17.453125-22.867188 30.089844-42.417969 30.089844h-60.976562v29.988281h118.5625l72.609375-47.828125c15.976562-10.527343 36.707031-9.5 51.597656 1.109375zm0 0"/><path d="m301.890625 240.941406c-8.265625 0-14.992187-6.726562-14.992187-14.992187h-29.992188c0 19.546875 12.539062 36.214843 29.992188 42.402343v33.570313h29.988281v-33.570313c17.453125-6.1875 29.988281-22.855468 29.988281-42.402343 0-24.804688-20.179688-44.984375-44.984375-44.984375-8.265625 0-14.992187-6.726563-14.992187-14.996094 0-8.265625 6.726562-14.992188 14.992187-14.992188 8.269531 0 14.996094 6.726563 14.996094 14.992188h29.988281c0-19.546875-12.535156-36.214844-29.988281-42.402344v-32.570312h-29.988281v32.570312c-17.453126 6.1875-29.992188 22.855469-29.992188 42.402344 0 24.804688 20.183594 44.984375 44.984375 44.984375 8.269531 0 14.996094 6.726563 14.996094 14.996094 0 8.265625-6.726563 14.992187-14.996094 14.992187zm0 0"/></svg>