<svg id="Layer_1" data-name="Layer 1" xmlns="http://www.w3.org/2000/svg" viewBox="0 0 36 36"><defs><style>.cls-1{fill:#fff;}</style></defs><title>white_ils</title><path class="cls-1" d="M30.2,1h4.23a.86.86,0,0,1,.59.62v22l0,.21c-.06.53-.1,1.07-.2,1.58a11.74,11.74,0,0,1-4,6.82,11.55,11.55,0,0,1-6.16,2.7l-.91.1h-12a.89.89,0,0,1-.59-1q0-11.4,0-22.81a2.26,2.26,0,0,1,0-.26.74.74,0,0,1,.75-.7h3.92a.72.72,0,0,1,.72.57,2.11,2.11,0,0,1,0,.36V29.59H23a7.55,7.55,0,0,0,.83-.05,6.6,6.6,0,0,0,5.77-6.62q0-10.5,0-21A.85.85,0,0,1,30.2,1Z"/><path class="cls-1" d="M6.61,35H2.38a.86.86,0,0,1-.59-.62V1.62A.86.86,0,0,1,2.38,1h12l.17,0c.38,0,.75.06,1.12.12a11.5,11.5,0,0,1,6.06,2.9,11.76,11.76,0,0,1,4,9V24.83a.91.91,0,0,1,0,.17.73.73,0,0,1-.76.73H21.1a.74.74,0,0,1-.74-.57,2,2,0,0,1,0-.35V13.12A8.89,8.89,0,0,0,20.26,12a6.13,6.13,0,0,0-1.58-3.33,6.31,6.31,0,0,0-4.84-2.23H7.2V34.06A.87.87,0,0,1,6.61,35Z"/></svg>